<svg xmlns="http://www.w3.org/2000/svg" height="69.083" viewBox="0 0 250.00002 69.082893" width="250"><g transform="matrix(1.25 0 0 -1.25 -140.86 564.76)"><g><path d="m173.42 446.34c-1.6101 1.2813-3.4216 2.3558-5.4225 3.1407-1.8724 0.88288-4.324 1.4239-6.866 1.4283-2.0466-0.001-4.1542-0.35598-6.0288-1.2574-0.81756-0.33857-1.572-0.75225-2.2611-1.2225-0.0196 0.0218-0.0403 0.0436-0.0599 0.0642-0.70544 0.72939-1.6678 1.1376-2.6661 1.1376-0.30591 0-0.61617-0.0381-0.92316-0.11867-1.9345-0.49097-3.0547-1.4424-4.1248-2.3754l-0.57153-0.49098c-0.18616-0.16002-0.36034-0.33747-0.52255-0.54322-1.02-1.3074-1.7418-2.4647-2.2415-3.5598-0.11213-0.025-0.22535-0.0566-0.33857-0.0958-1.4076-0.47356-2.5616-1.4348-3.3269-2.6998-0.65535-1.0778-1.0484-2.3612-1.1877-3.7906-1.8801-0.60201-3.5424-1.5676-4.7551-2.8903-0.62923-0.69128-0.96344-1.5829-0.96344-2.4908 0-0.3832 0.0588-0.76966 0.1818-1.1442-1.1452-1.4816-1.6819-3.0242-1.6787-4.4776 0-0.0316 0-0.0631 0.001-0.0958-1.1496-0.47899-2.5365-1.0244-4.2587-1.6972-3.9909-1.5611-5.7023-4.6289-5.8155-6.9868-0.004-0.0893-0.005-0.17853-0.005-0.26671 0-0.12955 0.005-0.25583 0.0152-0.38102-0.88832-0.43872-1.4435-0.62488-1.7277-0.70217-0.26236 0.0577-0.53125 0.086-0.79906 0.086-0.94711 0.002-1.9106-0.36578-2.6301-1.1039-0.69999-0.71523-1.0527-1.6547-1.0527-2.5822 0-0.94929 0.36905-1.9084 1.0973-2.628h0.001c0.0163-0.0174 0.0207-0.0207 0.0239-0.025l0.0152-0.0142 0.0501-0.0457c0.2678-0.26018 1.1877-1.1311 2.5082-2.0336 1.3521-0.91663 3.12-1.8833 5.1177-2.2099 0.66515-0.10669 1.4076-0.15568 2.1729-0.17418 0.1818-0.38538 0.41586-0.75878 0.70652-1.105 0.97324-1.1583 2.2829-2.026 3.8646-2.6084 1.5829-0.58459 3.4433-0.90139 5.6043-0.99392 1.8648-0.0795 3.7438-0.11322 5.1013-0.12955 0.37231-0.37231 0.82627-0.74136 1.376-1.0854 1.1137-0.69237 2.4418-0.92752 3.9256-0.92861 1.8888 0.002 4.0922 0.38211 6.6994 0.94058 3.0787 0.66624 5.5379 1.5197 7.3918 2.6182 1.5535-0.5356 3.6349-1.2236 5.7023-1.8148 2.3177-0.65753 4.569-1.2029 6.215-1.2693 0.26454-0.009 0.52363-0.0142 0.77837-0.0142 2.4919 0 4.4786 0.44961 5.9897 1.1474 0.93731 0.43546 1.695 0.96344 2.2676 1.5524h88.225l4.5331 3.6567 3.3748 12.642h28.037l7.6215 29.638h-138.37z" fill="#fff"/><path d="m177.08 444.42 0.0109-0.0185-3.3116 0.0141c-0.27978 0.25474-0.56609 0.50186-0.86002 0.74245-1.5894 1.2987-3.3856 2.3819-5.3768 3.1592-3.0395 1.4544-8.2083 2.0064-11.977 0.17527-1.154-0.47573-2.1642-1.1093-3.0406-1.8507-0.11866 0.34619-0.30373 0.67169-0.56609 0.94276-0.64012 0.66298-1.585 0.94058-2.4766 0.70761-1.7135-0.44634-2.5768-1.191-3.6687-2.1348l-0.57589-0.49315c-0.12846-0.11104-0.26018-0.24494-0.3636-0.37884-1.1736-1.5034-1.8997-2.7532-2.3482-3.9071-0.25583-0.007-0.51492-0.0424-0.76531-0.12737-2.3057-0.78272-3.6839-3.0482-3.7906-6.2139-0.002-0.024-0.002-0.0468-0.003-0.0686-2.0401-0.52472-3.8146-1.4882-4.999-2.7869-0.43546-0.47791-0.66625-1.0941-0.66625-1.7211 0-0.27107 0.0425-0.54214 0.13064-0.80668 0.0653-0.19595 0.15458-0.35598 0.24059-0.52036-1.3281-1.4969-1.8681-2.9698-1.8681-4.2947 0-0.28087 0.0327-0.55302 0.0773-0.81974-1.3151-0.56718-2.935-1.2062-5.0611-2.0368-3.611-1.413-4.999-4.1031-5.0904-5.9788-0.003-0.0708-0.004-0.14043-0.004-0.2112 0-0.35816 0.0523-0.69454 0.13935-1.0135-0.1633-0.086-0.32659-0.17201-0.4888-0.25474-1.4762-0.75442-2.2448-0.94276-2.5278-0.98957-0.88833 0.27869-1.8942 0.0697-2.5888-0.6412-0.48553-0.49642-0.72721-1.1409-0.72721-1.7843 0-0.65862 0.25257-1.3172 0.75769-1.8158 0.004-0.005 0.0163-0.0152 0.0218-0.0218l0.049-0.0446c0.42675-0.41803 3.5479-3.3878 7.0239-3.9474 0.78708-0.12628 1.781-0.16874 2.7847-0.16765 0.14914-0.53343 0.40388-1.0473 0.78708-1.5034 1.6613-1.9737 4.4874-3.0199 8.6437-3.1962 2.0815-0.0882 4.1912-0.12083 5.5542-0.1339 0.36142-0.42021 0.8328-0.84913 1.4794-1.2541 1.9269-1.2051 5.1699-0.83172 9.7792 0.16112 3.2735 0.70434 5.7785 1.6308 7.492 2.7586 3.1516-1.0995 9.2338-3.0982 12.099-3.2006 3.4891-0.12628 5.8993 0.651 7.3581 1.6602 0.70652 0.4877 1.1931 1.0298 1.4642 1.5513 0.0229 0.0424 0.0392 0.086 0.0588 0.12954h87.899l3.4804 2.7336 3.5881 13.601 27.742 0.14261 6.6951 25.858h-132.21z" fill="#00539f"/><path d="m61.846 3.8164c-2.394-0.1157-4.89 0.2273-6.994 1.2363-3.22 1.2737-5.438 3.699-6.821 6.3013-0.003-0.149-0.017-0.302-0.017-0.446 0-1.7416 0.261-3.2767 0.422-3.8006 0.039-0.1265 0.056-0.2555 0.056-0.3847 0-0.3334-0.125-0.6612-0.363-0.9102-0.331-0.3429-0.821-0.4824-1.281-0.3613-1.719 0.4477-2.559 1.1719-3.832 2.2715l-0.735 0.6308c-0.066 0.0571-0.133 0.1259-0.187 0.1953-2.047 2.6192-2.892 4.5152-3.199 6.3052-0.058-0.105-0.108-0.211-0.194-0.301-0.352-0.372-0.89-0.505-1.375-0.34-2.136 0.727-3.367 2.884-3.469 6.076-0.002 0.04-0.003 0.078-0.003 0.117 0 0.457 0.161 0.91 0.334 1.354-2.934 0.394-5.511 1.569-7.069 3.279-0.224 0.246-0.342 0.562-0.342 0.885 0 0.139 0.022 0.28 0.067 0.416 0.219 0.66 0.638 1.052 1.131 1.299-2.361 2.038-3.079 3.85-3.079 5.287 0 0.831 0.246 1.52 0.536 2.074-1.925 0.906-4.392 1.881-7.95 3.271-3.442 1.345-5.078 3.889-5.171 5.815-0.003 0.056-0.004 0.11-0.004 0.166 0 0.88 0.36 1.589 0.966 1.969-0.802 0.445-1.621 0.884-2.423 1.295-3.3139 1.694-4.3522 1.454-4.3617 1.451l-0.0137-0.002c-0.6232-0.108-1.0942-0.131-1.5215 0.394-0.2191 0.27-0.3398 0.582-0.3398 0.887 0 0.289 0.1091 0.571 0.3418 0.803 0.0012 0.002 0.0104 0.01 0.0117 0.012 0.2286 0.224 3.9789 3.867 7.8342 4.486 1.332 0.215 3.263 0.212 4.963 0.148-0.06 0.229-0.092 0.457-0.092 0.686 0 0.668 0.25 1.327 0.734 1.902 1.718 2.041 4.809 3.129 9.448 3.326 3.083 0.131 6.303 0.164 7.818 0.172 0.32 0.555 0.877 1.215 1.889 1.848 1.594 0.997 4.734 0.868 10.834-0.445 5.275-1.138 8.018-2.56 9.457-3.711 3.044 1.079 11.826 4.091 15.492 4.22 5.212 0.19 8.472-1.424 9.297-3.004 0.322-0.619 0.288-1.291-0.09-1.794-0.189-0.251-0.745-0.799-1.852-0.59-0.332-0.017-1.007-0.511-1.773-1.239 1.936 0.233 3.772 0.456 3.898 0.471 0.227 0.072 5.809 1.852 5.809 1.852 0.009 0.017 0.012 0.012 0.049 0.017 0.005 0 2.476 0.996 3.691-0.629 0.493-0.658 1.098-1.374 0.902-3.808 0.002 0.012-0.238-1.311-0.234-1.297l-0.432-1.336c-1.548-4.329-4.933-6.608-8.814-8.938-0.773-0.464-1.502-0.911-2.203-1.357 0.343-0.788 0.627-1.699 0.627-2.699 0-0.442-0.054-0.899-0.182-1.365-0.037-0.141-0.096-0.273-0.178-0.391-0.019-0.029-0.022-0.038-0.037-0.063 0.542-0.506 1.358-1.421 1.797-3.474 0.004-0.018 0.01-0.035 0.014-0.053 0.422-1.534 0.633-3.18 0.633-4.885 0-9.095-5.868-19.84-16.051-23.781l-0.002 0.0001c-1.685-0.824-3.974-1.398-6.367-1.5137zm45.974 7.6246l2.32 3.815-6.09 23.414-0.05 0.209h13.65l0.84-3.145 1.3-4.843h-4.91l-0.96 3.597h-3.12l1.91-7.099h6.27l1.28-4.768h-6.28l1.78-6.652h3.02l-0.95 3.531h4.95l2.15-8.059h-17.11zm18.08 0l2.29 4.528-5.04 18.822-1.1 4.088h13.44l1.87-6.977 0.27-1.011h-4.87l-0.55 2.056-0.41 1.541h-2.95l0.24-0.906 5.93-22.141h-9.12zm32.89 0l2.32 4.528-0.77 11.263-0.8 11.647h6.72l5.68-14.004 1.39-3.42-0.41 3.221-1.82 14.203h6.45l7.58-16.684 4.89-10.754h-5.49l-5.24 11.94-2.03 4.627 0.54-4.324 1.51-12.243h-6.42l-5.96 14.452-0.89 2.148 0.25-2.018 1.81-14.582h-9.31zm66.5 0l1.4 2.307 0.92 1.508-6.14 23.623h13.65l2.14-7.988h-4.9l-0.97 3.597h-3.12l1.9-7.099h6.28l1.28-4.768h-6.28l1.78-6.652h3.02l-0.94 3.531h4.93l2.16-8.059h-4.36-12.75zm-136.7 0.002l2.328 4.493-6.147 22.945h11.352l4.653-3.399 5.53-19.927-2.83-4.112h-14.886zm57.846 0l1.18 4.528-6.84 15.236-3.45 7.672h5.35l3.48-7.988h4.02l-0.77 7.988h5.59l0.81-10.725 1.25-16.711h-10.62zm44.97 0l1.2 4.528-2.33 5.177-7.97 17.731h5.36l3.47-7.988h4.01l-0.77 7.988h5.6l1.51-20.008 0.56-7.428h-10.64zm14.69 0l2.37 4.219-0.51 1.893-5.71 21.326h5.69l3.06-11.459h2.44l0.98 1.201-2.75 10.258h5.7l3.14-11.731-1.75-2.023 2.83-1.99 2.22-7.582-0.75-1.069-2.14-3.043h-14.82zm-109.56 4.528h2.869l0.732 0.886-4.486 16.741-1.197 0.857h-2.871l4.953-18.484zm117.53 0h1.69 1.09l0.73 0.855-1.23 4.598-1.61 1.164h-2.44l1.68-6.256 0.09-0.361zm-62.86 3.496l-0.85 7.922h-2.57l3.42-7.922zm44.99 0l-0.06 0.49-0.8 7.432h-2.57l3.2-7.397 0.23-0.525z" transform="matrix(.8 0 0 -.8 112.69 451.81)" fill="#ffd200"/><path d="m166.84 446.57c-2.3754 1.1823-6.7789 1.7255-9.8619 0.22644-3.8265-1.498-5.6173-5.2156-6.1159-7.8752-1.3673 2.6661-0.6608 6.7767-0.43763 7.5028-1.3445-0.35054-1.8158-0.90574-3.2398-2.1087-2.6791-3.4314-2.5681-5.0088-2.3765-7.7946-0.59331 0.32442-2.1871 2.2611-1.928 2.9143-1.5393-0.52363-2.0162-2.3427-2.063-3.918-0.0414-0.51384 0.71632-1.6308 0.49097-2.063-2.665-0.10016-4.9544-1.0745-6.1551-2.3917 0.31461-0.94602 1.9824-0.48553 2.9023-0.68366-0.82083-0.40715-1.5709-0.85784-2.223-1.4076-1.855-1.5687-2.9567-3.4902-1.5328-5.22 0.17527-0.14152 0.49533-0.0882 0.74027-0.0773-0.005-0.0109-0.01-0.0196-0.0142-0.0305-1.7777-0.99828-3.9637-1.8703-7.9764-3.439-4.2533-1.6623-3.9539-5.5172-2.4919-4.3349 1.462 1.1812 5.0066 1.4522 5.0066 1.4522s-4.0399-2.5822-7.7249-4.4688c-3.6861-1.8855-4.4547-1.1431-4.4547-1.1431s2.887-2.8544 5.7055-3.3084c1.5807-0.25365 4.5668-0.1056 6.5176 0.0697-1.3651-0.49968-2.2622-1.5883-1.3967-2.6192 1.1627-1.3815 3.427-2.1435 6.7974-2.2872 3.3693-0.14261 6.9226-0.13825 6.9226-0.13825s0.0229-0.80124 1.3564-1.6351c1.3336-0.83498 5.2744-0.0719 7.8882 0.49097 4.7181 1.0168 6.6722 2.2927 7.456 3.0373l-4.9729 1.4163c-4.9391 0.7468-8.7363 2.6312-11.27 5.2015-0.43872 0.39517-0.71197 1.2487-1.4239 1.4958-0.56392-0.0555-1.8616-0.4409-2.4298-0.28631-0.37885 0.6793 2.494 1.3586 0.77075 2.064-1.4566-0.45069-3.2779-0.38646-4.643 0.0893-0.55847 0.94493 1.9269 1.3619 2.3558 1.4686 1.5611 0.44089 3.8559 0.49315 5.4105 0.84369 0.22099 0.25582-0.88397 0.89921-1.1442 1.0277-1.2138 0.26453 1.1964 0.20139 1.4805 0.2297 0.78817 0.10124 0.38211 0.15458 0.68258 0.85131-0.28196 0.27542 1.4403-0.28196 1.5611-0.22644 0.31679-0.14696 0.77837-0.38537 1.241-0.32114 0.10015 0.50512-0.51057 0.61072-0.76422 1.1344 1.4414-0.43001 2.8337-0.75551 3.9985-1.425-0.12083 0.8524-1.0396 2.6018-1.3651 3.4727-1.0168 3.1178-2.0162 6.4393 2.6628 7.9699 3.7177 1.1855 7.21-2.1729 9.1881-3.7035-0.009-0.001-0.0163-0.003-0.0261-0.005 0.15024-0.0599 0.26019-0.11104 0.31353-0.13717 0.48009-0.24059 3.4052-3.2615 4.7007-4.4612 1.2944-1.1986 4.0758-3.7405 5.515-4.1727 1.4392-0.43109 2.9741-0.57479 3.7405-0.1437 0.76857 0.43219 0.96017 0.67169 0.96017 0.67169s0.1916 1.3913 0.2395 1.7745 0.0958 1.1028 0.0958 1.1028 0.91119 0.52798 1.1028 0.43218c0.19268-0.0969 0.38428-2.7825-0.6227-3.7416 0 0 0.91118-0.3832 3.7405-2.2066 1.154-0.74245 2.3133-1.4958 3.3301-2.3787-1.8735 1.7592-4.2468 2.9262-6.4589 4.4362 0.6227 1.1093 1.0004 2.2273 0.69455 3.3541-1.0799 1.6003 0.61725 0.57806 1.2628 3.6796 1.99 7.0663-2.3885 18.156-11.719 21.744" fill="#fff"/><path d="m59.885 6.4512c-2.952 0.2653-5.123 1.5048-6.742 2.8574-3.311 2.9474-3.807 6.1094-4.704 9.2054-1.16 0.275-1.324-0.388-1.548-0.78-0.719-2.611-2.425-5.082-1.235-8.7652-2.901 2.5232-4.231 6.5212-4.121 9.4102-0.185 0.757 0.976 1.878-0.537 2.189-1.421-0.39-3.67-1.622-3.885-3.047-1.852 2.014-0.009 4.035-0.019 5.663-2.718 0.367-5.838 1.044-7.506 2.558 1.384 0.056 2.803-0.196 4.078 0.147 0.078 1.042-1.837 1.283-2.758 1.925-2.332 1.538-4.89 5.386-2.256 6.555 0.033-0.145 1.627-4.392 4.799-5.527 0.26-0.355-0.247 1.034 0.012 1.435-1.64 1.507-2.681 3.007-3.334 4.629-0.697 0.868-1.892 1.908-3.9 2.674-4.143 1.581-6.136 2.313-7.647 2.744-1.512 0.432-1.974 0.89-2.906 1.592s-1.252 2.09-1.252 2.09 1.959-1.639 6.209-1.82c1.71-0.075 3.662 0.748 3.662 0.748s-1.786 0.723-3.84 2.144c-2.169 1.501-2.416 1.741-3.49 2.428-1.121 0.717-2.966 1.584-3.717 1.957s-4.1503 1.422-4.1503 1.422 0.8781 1.188 3.5823 1.629c1.57 0.255 3.973 0.257 5.306 0.314 1.337 0.056 5.073 0.148 5.645 0.106 0.569-0.045-0.261 1.105-1.467 2.005-1.309 0.98-1.132 2.697 1.361 3.295 2.493 0.599 4.09 0.868 6.94 0.649 2.849-0.218 6.469-0.18 6.469-0.18s-0.338 2.064 1.964 2.678c2.303 0.614 6.658-0.108 9.873-0.828 2.839-0.636 5.661-2.463 6.286-2.883 0.144 0.006 0.228-0.011 0.129-0.09l-2.868-0.211-3.156-0.41c-6.119-1.188-11.448-3.955-14.664-7.197-0.702-0.722-2.478-0.035-3.617-0.324-0.195-0.184-0.318-0.361-0.322-0.51-0.024-0.79 1.086-1.977 1.086-1.977s-1.275 0.096-3.049-0.084c-1.907-0.192-2.312-0.929-2.145-1.73 0.135-0.644 0.542-0.911 1.557-1.58-0.017-0.041-0.031-0.088 0.012-0.006 2.124-1.037 4.334-0.987 6.199-1.709-0.202-0.036-0.363-0.115-0.565-0.149-0.166-0.344 0.113-0.778 0.551-1.019 0.798-0.389 1.888-0.427 2.772-0.381-0.255-0.4-0.849-0.734-0.401-1.203 0.881-0.218 1.699 0.07 2.528 0.127-0.369-0.379-0.572-0.791-0.073-1.158 1.614-0.104 3.237 0.696 4.367 1.373-1.113-3.175-2.982-6.55-2.197-9.621 0.743-1.893 1.317-4.434 7.139-5.372 2.913-0.219 6.37 0.951 9.281 3.198 4.443 3.814 7.772 7.738 11.666 11.816 1.391 0.964 2.499 2.099 4.688 2.67 0.845 0.093 1.812 0.308 2.576-0.15 1.065-0.975 0.739-2.155 1.088-3.209 0.419-1.296-1.907-0.252-2.752-1.1-1.009-0.17-2.174-3.071-2.262-0.973-0.997 0.356-0.708-0.571-1.219-0.732-0.174 0.15-0.621 0.241-0.834 0.059-1.531-3.656-4.634-6.614-7.199-9.604-0.227-0.218-1.028-0.468-0.68-0.766 7.109 1.946 9.096 6.792 13.104 10.469 0.541 0.607 1.667 1.02 2.894 0.504 0.983-0.769 1.934-1.722 2.079-2.695 0.617-6.705-0.197-14.589-6.272-20.488-2.06-3.249-7.495-7.0467-14.613-6.9868zm-10.533 20.09c-0.569 0.023-1.146 0.119-1.727 0.305-5.847 1.912-4.599 6.065-3.326 9.963 0.407 1.088 1.555 3.275 1.705 4.339-1.455-0.835-3.196-1.243-4.998-1.781 0.317 0.653 1.08 0.786 0.955 1.416-0.577 0.082-1.155-0.215-1.551-0.398-0.151 0.069-2.304-0.628-1.953-0.283-0.376 0.87 0.133 0.937-0.853 1.064-0.354 0.034-3.365-0.045-1.848 0.285 0.324 0.162 1.704 0.966 1.43 1.285-1.944 0.437-4.814 0.504-6.764 1.055-0.536 0.133-3.644 0.655-2.945 1.836 1.706 0.595 3.982 0.675 5.804 0.111 2.154 0.882-1.438 1.733-0.963 2.58 0.711 0.195 2.333-0.289 3.037-0.357 0.889 0.309 1.231 1.375 1.778 1.869 3.168 3.213 7.916 5.569 14.09 6.502l6.215 1.772 0.173 0.048s11.033 3.598 14.151 4.256c3.116 0.66 4.496 0.121 5.814-0.119 1.319-0.239 3.297-1.2 3.836-1.92 0.54-0.718 0.241-0.478 0.121-0.777-0.105-0.259-0.483-0.067-0.847 0.025-0.059 0.015-0.116 0.027-0.172 0.035-0.409 0.053-1.321-0.601-1.321-0.601-0.047-0.033-0.146-0.124-0.281-0.256-0.871-0.852-3.248-3.447-3.248-3.447s1.072 0.287 1.852 0.287c0.778 0 4.317 0.599 5.037 0.599 0.718 0 0.778 0.24 2.517 0.899 1.739 0.66 4.916 1.379 4.916 1.379s2.639 0.539 1.799-4.137c-0.497-2.771-1.965-4.717-3.81-6.318-1.271-1.104-2.722-2.046-4.164-2.975-3.539-2.278-4.676-2.758-4.676-2.758 1.26-1.199 1.019-4.556 0.779-4.676-0.239-0.119-1.379 0.541-1.379 0.541s-0.059 0.897-0.119 1.377c-0.06 0.479-0.299 2.219-0.299 2.219s-0.242 0.3-1.201 0.84c-0.959 0.539-2.877 0.359-4.676-0.182-1.799-0.539-5.275-3.716-6.894-5.214-1.618-1.5-5.277-5.276-5.875-5.577-0.067-0.034-0.206-0.095-0.393-0.172 0.011-0.001 0.02-0.003 0.031-0.005-2.163-1.673-5.774-5.098-9.757-4.934zm9.089 5.389c0.437-0.028 0.858 0.07 1.141 0.367 2.75 2.611 5.42 5.314 8.281 7.902-2.947 0.139-1.892 3.466-0.82 4.908 0.744 1.177 2.213 0.743 3.121 0.707 0.574 1.018-1.51 1.709-2.844 2.133-2.206-0.985-5.351-1.625-6.963-3.033-3.917-3.241-5.602-8.228-3.683-12.137 0.264-0.408 1.039-0.802 1.767-0.847zm20.78 7.002c0.377-0.026 0.374 0.383 0.291 0.521-0.192 0.464-0.144 0.944-0.227 1.461-0.634-0.531-0.605-1.377-0.25-1.943 0.07-0.024 0.132-0.036 0.186-0.039zm-10.68 2.408c0.3 0.048 0.349 0.436 0.287 0.59-0.141 0.597 0.014 1.169 0.018 1.81-0.878-0.537-1.009-1.569-0.694-2.312 0.161-0.08 0.289-0.104 0.389-0.088zm9.117 1.39c6.337 3.275 13.368 8.453 12.094 14.196-11.481-4.189-21.368-1.569-29.777-5.205-0.342-0.195-0.357-0.609-0.563-0.907 1.516-0.423 3.248-0.285 4.906-0.55 0.611-0.39-0.393-0.299-0.627-0.401-3.399-0.021-6.977-0.156-10.406 0.774-0.253 0.239-0.07 0.617 0.199 0.789 1.613 0.273 2.47-0.619 4.151-0.586 1.478 3.494 4.954 4.922 8.658 6.961 3.127 1.363 7.852 3.038 11.721 3.263-0.859 0.894-2.739 0.449-4.073 0.497-6.794-1.179-13.769-3.225-20.041-5.608-1.179-0.401-2.063-1.202-3.16-1.432-0.359 0.15 0.016 0.413-0.248 0.504-5.629-1.946-11.064-5.351-10.793-8.318-0.035-0.939 0.822-1.651 1.653-1.973 6.281-1.778 11.23-0.229 17.308 1.245 3.127 1.528 10.032 3.428 13.526 4.906 0.74-0.758-5.147-1.841-3.163-2.324 3.903-0.922 3.203-3.699 3.364-5.395 1.476 0.377 3.292 0.687 4.681-0.127 0.19-0.116 0.277-0.321 0.59-0.309zm-1.525 2.202c-0.745-0.019-2.023 0.686-1.86 1.017 1.33 0.331 3.701 0.344 5.028 0.791-0.572-0.79-1.594-1.375-2.887-1.754-0.079-0.035-0.175-0.052-0.281-0.054zm-13.492 8.849c1.886 0.37 4.364 1.107 7.418 1.317 1.257 1.065 2.245 2.338 2.791 3.588-3.922-1.352-7.447-2.899-10.209-4.905z" transform="matrix(.8 0 0 -.8 112.69 451.81)" fill="#00539f"/><path d="m54.891 5.0312c-0.033 0.0126-0.063 0.0281-0.094 0.043 0.018-0.01 0.036-0.0133 0.053-0.0215 0.015-0.0062 0.027-0.0161 0.041-0.0215zm3.55 26.899c-0.728 0.045-1.504 0.439-1.767 0.847-1.919 3.909-0.234 8.896 3.685 12.137 1.612 1.408 4.755 2.048 6.961 3.033 1.333-0.424 3.418-1.115 2.844-2.135-0.908 0.037-2.377 0.472-3.121-0.705-1.072-1.442-2.127-4.769 0.82-4.908-2.861-2.588-5.531-5.291-8.281-7.902-0.283-0.297-0.703-0.395-1.141-0.367zm20.78 7.002c-0.054 0.003-0.118 0.015-0.188 0.039-0.354 0.566-0.383 1.412 0.252 1.943 0.083-0.518 0.035-0.997 0.229-1.461 0.082-0.138 0.084-0.547-0.293-0.521zm-10.68 2.41c-0.1-0.016-0.229 0.003-0.391 0.084-0.315 0.744-0.182 1.777 0.696 2.316-0.004-0.642-0.158-1.216-0.018-1.812 0.063-0.154 0.014-0.54-0.287-0.588zm28.762 0.49l1.515 2.955-4.006 14.955h7.388l3.06-2.215 1.42-5.304-1.21-1.436 1.96-1.387 1.44-5.351-1.87-2.217h-9.697zm12.767 0l1.49 2.066-4.01 15.844h8.78l1.39-5.215h-3.18l-0.63 2.348h-1.92l4.03-15.043h-5.95zm10.74 0l1.51 2.955-3.41 12.74 1.84 2.215h4.97l3.04-2.215 4.23-15.695h-3.7l-3.88 14.486-0.78 0.557h-1.25l-0.48-0.557 3.88-14.486h-5.97zm14.93 0l-0.78 2.955-4.01 14.953h8.91l1.4-5.213h-3.2l-0.63 2.348h-2.04l1.24-4.631h4.1l0.83-3.113h-4.09l1.16-4.344h1.97l-0.62 2.309h3.23l1.4-5.264h-8.87zm15.42 0l1.5 2.932-4.02 14.978h3.68l2-7.498h2.38l-2.01 7.498h3.67l4.8-17.91h-3.67l-1.95 7.275h-2.38l1.95-7.275h-5.95zm15.09 0l-0.77 2.955-4.01 14.953h8.91l1.39-5.213h-3.2l-0.63 2.35h-2.03l1.24-4.635h4.09l0.84-3.109h-4.1l1.17-4.346h1.96l-0.61 2.309h3.22l1.41-5.264h-8.88zm11.54 0l-0.66 2.932-4.02 14.978h3.34l2.44-9.111 1.21 9.111h3l4.8-17.91h-3.36l-2.4 8.957-1.25-8.957h-3.1zm14.64 0l-2.8 2.934-1.49 5.574 1.63 1.926h3.61l0.3 0.359-0.99 3.693-0.77 0.557h-1.33l-0.47-0.557 0.48-1.791h-3.68l-0.8 3 1.87 2.215h4.99l3.06-2.215 1.73-6.449-1.61-1.947h-3.63l-0.3-0.383 0.9-3.355 0.79-0.606h1.21l0.48 0.559-0.47 1.75h3.67l0.82-3.049-1.87-2.215h-5.33zm-164.44 1.674c0 0.007 0.008 0.03 0.016 0.051 0.004-0.003 0.01-0.004 0.013-0.008-0.021-0.041-0.029-0.05-0.029-0.043zm74.498 1.281h1.88l0.48 0.559-0.87 3.226-0.99 0.537h-1.66l1.16-4.322zm-2 7.455h1.66l0.64 0.807-0.89 3.289-0.77 0.539h-1.876l1.236-4.635zm-21.578 6.555c0.135 0.131 0.234 0.222 0.283 0.254 0 0 0.91 0.652 1.319 0.599 0.055-0.006 0.114-0.02 0.172-0.035-0.524-0.004-1.148-0.338-1.774-0.818z" transform="matrix(.8 0 0 -.8 112.69 451.81)" fill="#fff"/></g></g></svg>
