<svg xmlns="http://www.w3.org/2000/svg" width="248" height="217.59" viewBox="0 0 248 217.59">
 <g>
  <path d="m244.62 79.504c-0.26256-0.52566-0.52485-0.7885-0.78741-1.3139-0.26228-0.52566-1.0494-1.3142-2.6237-2.8909-1.312-1.3142-3.1488-3.1537-4.7231-4.9933 2.3614-2.628 5.2476-6.57 6.0348-9.9865 1.0497-3.4165 1.5745-8.9352-3.9357-32.325l-0.52485-2.6279-1.8368-2.1024c-3.4111-3.942-16.006-16.819-27.289-19.447l-0.52485-0.2628c-7.0845-1.5768-13.907-3.1536-21.779 1.5768-2.3617 1.314-4.9856 4.2048-7.0847 6.8329-3.1485-3.1536-8.3964-7.8841-14.694-8.9353h-0.78741l-4.9854-0.52561c-9.4461-1.0512-19.155-2.3652-28.863-1.0512l-1.8366 0.2628h-0.52484s-2.3617 1.314-3.9359 2.1024c-1.5743-0.78839-3.6734-2.1024-3.9359-2.1024h-0.52484l-1.8366-0.2628c-9.7087-1.314-19.417 0-28.863 1.0512l-4.9854 0.52561h-0.78713c-5.7728 1.314-11.283 5.7816-14.432 9.1981-2.0991-2.3652-4.7231-5.2561-7.0845-6.8329-7.8719-4.7304-14.694-3.1536-21.779-1.5768l-0.78741 0.2628c-11.283 2.628-23.615 15.505-27.289 19.447l-1.5744 1.8396-0.52476 2.6279c-5.5103 23.39-4.9855 28.908-3.9359 32.325 1.0496 3.4165 3.6735 7.3585 6.035 9.9865-1.5744 1.8396-3.1487 3.4163-4.7231 4.9933-1.5743 1.5767-2.3615 2.3652-2.6239 2.8909-0.2624 0.26283-0.52479 0.78822-0.78719 1.3139-1.312 1.8396-3.1487 4.2048-2.3615 6.0446 0.52478 1.8396 3.1487 2.628 5.2478 3.1534 0.78719 0.26283 1.5743 0.52566 2.0991 0.7885 0 0 0.2624 0 1.0496 0.26283-2.3615 15.768-4.1983 40.471-4.1983 43.1v1.0513c0 2.1024-0.2624 5.7815 3.1487 6.8328 2.0991 0.52566 4.7231-0.26283 8.3966-2.3652 7.6094 17.345 19.942 43.888 22.303 47.83 2.3614 3.9419 5.5102 6.0443 8.3964 5.5189 2.0991-0.26283 5.7728-4.4676 6.8222-5.7818 1.312 0.52566 3.6736 1.3142 6.5599 2.3652 8.3964 3.1537 22.566 8.4098 29.388 10.249l8.1342 7.3585h13.645l11.808 10.775 11.808-10.775h13.644l0.26229-0.26283 7.8719-7.0956c7.0845-1.8396 20.991-7.0956 29.388-10.249 2.8862-1.0511 5.5102-2.1024 6.5599-2.3652 1.312 1.3142 4.9854 5.5189 6.8222 5.7818 3.1488 0.52539 6.035-1.577 8.3964-5.5189 2.3617-3.9419 14.694-30.222 22.303-47.83 3.6736 2.1024 6.2976 2.628 8.3967 2.3652 3.4111-0.7885 3.4111-4.4676 3.1485-6.8328v-1.0513c0-2.3652-1.8366-27.332-4.1982-43.1 0.78713-0.26283 1.0497-0.26283 1.0497-0.26283 0.52485-0.26283 1.312-0.52566 2.0991-0.7885 2.0991-0.52539 4.7231-1.3139 5.2479-3.1534 0.78713-1.8398-0.78713-4.205-2.0991-6.0446z" fill="#000"/>
  <path d="m237.27 82.395c-0.52485 0.26283-4.9856 1.8396-5.2479 1.8396 2.0991 16.294 3.6734 45.99 3.4111 47.042-0.26229 1.051-1.312 1.051-2.0991 1.051-1.0497 0-4.9854-2.3652-4.9854-2.3652-7.0847 17.345-25.977 52.56-26.764 53.612-0.52485 0.52567-1.5743 0.52567-1.8368 0-0.78713-0.52566-2.8862-2.628-3.4111-3.1537-0.26228-0.26283-0.52484-0.52539-0.78713-1.051-9.4461 2.628-25.452 8.4095-41.458 12.352l-6.2976 5.7815-1.0494 0.7885h-14.694l-8.1342 8.6724-8.1342-8.6724h-14.694l-1.0494-0.7885-6.2976-5.7815c-16.006-3.6794-31.75-9.4609-41.458-12.089-0.26229 0.52539-0.78713 0.78822-0.78713 1.0511-0.52485 0.52566-2.624 2.628-3.4111 3.1537-0.52485 0.26283-1.5743 0.52566-1.8368 0-0.78713-1.0513-19.942-36.267-26.764-53.612 0 0-3.9359 2.3652-4.9855 2.3652-0.78716 0-1.8367 0-2.0991-1.051-0.26237-1.0513 1.312-30.748 3.4111-47.042-0.2624-0.26283-4.7231-1.8396-5.2479-1.8396-0.52479-0.26283-1.312-0.7885-0.78716-1.577 0.52476-0.78822 7.6094-8.4095 11.02-12.089l-0.2624-0.26256c-4.4607-1.3142-7.347-6.0446-8.3966-9.9865-0.78719-2.628-0.78719-8.147 3.9359-28.908l0.2624-0.7885 0.52476-0.7885c1.312-1.5767 13.907-14.98 23.615-17.345l0.78713-0.2628c6.5599-1.5768 11.283-2.628 16.793 0.78842 3.6734 2.1024 7.8716 5.5188 11.02 8.6725 1.312-0.78841 2.624-2.8908 3.9359-3.942 3.6734-3.1536 7.347-5.5188 12.332-6.0445l4.7231-0.78839c8.9213-1.0512 18.105-2.1024 27.026-1.0512l6.8222 4.4676 6.8222-4.4676c8.9213-1.0512 18.105 0 27.026 1.0512l4.9856 0.52558c4.7231 0.52561 8.6587 2.8908 12.332 6.0445 1.312 1.0512 2.8862 3.1536 3.9359 3.942 2.8862-3.1536 7.3468-6.3073 11.02-8.6725 5.5102-3.4164 10.233-2.3652 16.793-0.78841l0.78714 0.2628c9.7084 2.3652 22.303 15.768 23.615 17.345l0.52485 0.7885 0.26229 0.7885c4.9854 20.761 4.7231 26.28 3.9359 28.908-1.0497 3.9419-3.9359 8.6724-8.3967 9.9865l-0.26228 0.26283c3.4111 3.6791 10.496 11.3 11.02 12.089 0.26256 1.0511-0.52485 1.5767-1.0494 1.5767z" fill="#fff"/>
  <path d="m138.49 10.275c-2.6075-0.053384-5.1995 0.044548-7.7578 0.37305l-3.9356 4.4688c-1.0494 14.454-2.3613 32.062-2.3613 32.062h-0.78711s-1.3116-17.608-2.3613-32.062l-4.4609-4.2051c-10.233-1.314-20.991 0.78757-31.225 2.1016-2.8862 0.2628-5.2471 1.8401-7.8711 3.6797-3.1488 2.3652-8.3984 9.7246-8.3984 9.7246-1.0494-1.314-4.1964-5.7825-6.0332-7.3594-2.0991-1.8396-4.7243-3.6782-7.0859-4.9922-4.4608-2.628-8.1329-1.8405-14.955-0.26367-6.5599 1.5768-16.268 10.251-22.041 16.295-2.0991 9.198-5.2488 23.388-4.1992 27.33 0.52479 2.1024 2.8857 7.3591 7.084 7.8848 0 0 19.68-15.506 25.715-19.186l-0.26172-2.627s-3.9369 2.1018-4.1992 1.5762c-0.26229-0.26283-0.78556-7.3588 3.9375-10.775-2.8862-0.26283-3.4123-0.26281-7.873 1.8398-1.8368 0.78822-4.7221 3.6797-5.7715 6.0449-1.312 3.1537 1.8359 4.4668 1.8359 4.4668l-4.4609 2.8926c-1.0497-2.3652-1.5737-3.9423-1.8359-6.5703 0 0 8.6593-11.038 19.68-16.031 2.0991 1.0512 3.4102 15.241 3.4102 19.709-16.793 10.512-33.324 27.858-36.473 32.852-0.52476 0.78822 0.26172 1.0508 0.26172 1.0508s2.8879 1.0508 3.9375 1.0508c-2.3615 17.345-3.6732 39.422-3.1484 45.203 0 0.7885 0.78711 0.52539 0.78711 0.52539s2.8847-1.3144 3.6719-1.8398c6.0349 16.294 22.043 47.305 25.191 52.035 0.52457 0.7885 1.0488 0.26172 1.0488 0.26172s2.0982-2.3638 2.623-3.1524c7.6093 3.1537 27.553 9.7238 45.133 14.191l-9.1836-22.076-24.928-6.5703c-7.0845-9.9865-22.041-38.895-24.402-44.15-0.52457 0.26256-3.4121 0.78907-3.4121 0.78907s-0.52344 0.26199-0.52344-0.26368c0.7874-12.352 4.7228-23.916 8.3965-39.158-0.52485 0-4.1992-0.52539-4.1992-0.52539s-0.524-0.26256-0.26172-0.52539c7.347-8.9352 30.699-26.542 43.818-32.85 2.0991 0.26256 43.295 20.762 43.295 20.762s41.196-20.499 43.295-20.762c13.12 6.0443 36.473 23.914 43.82 32.85 0.26229 0.52566-0.26172 0.52539-0.26172 0.52539s-3.6744 0.26256-4.1992 0.52539c3.4111 15.242 7.6094 26.806 8.3965 39.158 0 0.52567-0.52539 0.26368-0.52539 0.26368s-2.8853-0.52651-3.4102-0.78907c-2.3617 5.2558-17.055 34.164-24.402 44.15l-25.189 6.5703-9.1836 22.076c17.58-4.4676 37.522-11.038 45.131-14.191 0.52485 0.7885 2.623 3.1524 2.623 3.1524s0.52593 0.52678 1.0508-0.26172c3.1488-4.7304 19.417-35.742 25.189-52.035 0.7874 0.5254 3.6738 1.8398 3.6738 1.8398s0.7871 0.26311 0.7871-0.52539c0.78713-5.7815-0.78872-27.858-3.1504-45.203 0.7874-0.26283 3.9375-1.0508 3.9375-1.0508s0.7863-0.26256 0.26172-1.0508c-2.6239-4.9933-19.418-22.339-36.211-33.377 0-4.4676 1.313-18.658 3.4121-19.709 11.02 5.2559 19.68 16.031 19.68 16.031-0.26229 2.628-0.78847 3.9403-1.8379 6.5684l-4.459-2.8906s3.1479-1.3131 1.8359-4.4668c-1.0497-2.3652-3.9366-4.9939-5.7734-6.0449-4.4608-2.1024-4.9846-2.1027-7.8711-1.8398 4.9856 3.6791 4.4604 10.513 3.9356 10.775-0.26229 0.26283-4.1973-1.5762-4.1973-1.5762l-0.26367 2.627c6.035 3.6791 25.715 19.186 25.715 19.186 4.1982-0.52566 6.2968-5.5196 7.084-7.8848 1.0497-3.9419-1.8359-18.134-4.1973-27.332-5.5102-6.0444-15.219-14.716-22.041-16.293-6.5596-1.5768-10.234-2.6272-14.957 0.26367-2.3614 1.5768-4.984 3.4162-7.3457 5.2559-1.8365 1.5768-4.9854 6.0434-6.0352 7.3574 0 0-5.2477-7.3574-8.3965-9.7227-2.3614-1.8396-4.9865-3.6797-7.873-3.6797-7.675-0.78841-15.644-2.3164-23.467-2.4766zm-61.547 39.531c-4.9856 0.52566-25.716 17.344-32.801 32.324-3.9359 8.4095-4.9853 18.133-3.1484 29.434 0.78713 4.9933 19.941 44.414 19.941 44.414l29.914 9.7246c0 1e-5 8.1344 21.024 12.07 29.434h13.119l8.1348 6.3066 8.1328-6.3066h13.121c3.6734-8.4098 12.068-29.434 12.068-29.434l29.389-9.7246s19.154-39.421 19.941-44.414c1.8366-11.038 1.0498-20.761-3.1484-29.434-7.0845-14.98-27.813-31.799-32.799-32.324-10.234-0.26283-40.672 17.607-40.672 17.607 0 1e-6 3.1498 6.0455 3.4121 6.834l25.451-9.4609c6.035 0.52566 17.582 1.3145 17.582 1.3145s14.431 20.761 16.006 23.914c0.26229 0.26283-0.26367 0.52539-0.26367 0.52539l-11.02-13.402c-6.5599-6.0446-9.9706-7.8842-13.906-8.9355-2.624-0.52539-8.9215-1.0519-13.645 1.5762 5.2479 0.26283 8.6582 3.6797 8.6582 3.6797v1.0508s-3.9366 2.6289-8.1348 2.6289c5.5102 3.1534 22.828 17.083 24.402 20.236 0.26256 0.26283-0.26172 0.52539-0.26172 0.52539s-1.8365 0.26172-2.3613 0.26172c0 4.9933-3.6734 19.185-7.6094 27.857-3.4111 1.577-7.3481 2.3655-11.021 3.6797-2.3617 6.0443-15.742 50.721-17.316 53.875-6.5599 0.78823-11.809 1.3125-11.809 1.3125l-4.4609 3.9434-4.4609-3.9434c1e-5 0-5.2468-0.52427-11.807-1.3125-1.5743-3.1537-14.957-48.093-17.318-53.875-3.6734-1.3142-7.6084-2.3655-11.02-3.6797-3.9359-8.6724-7.6094-22.864-7.6094-27.857-0.52485 0-2.3633-0.26172-2.3633-0.26172s-0.52401 2.72e-4 -0.26172-0.52539c1.5743-3.4163 18.892-17.346 24.402-20.236-4.4608 0-8.1328-2.6289-8.1328-2.6289v-1.0508s3.6729-3.1543 8.6582-3.6797c-4.7231-2.628-11.021-2.1016-13.645-1.5762-3.9359 1.0513-7.3464 2.891-13.906 8.9355l-11.021 13.402s-0.52401 2.72e-4 -0.26172-0.52539c1.5745-3.1534 16.006-23.914 16.006-23.914s11.545-0.52623 17.58-1.3145l25.453 9.4609c0.52485-0.7885 3.4102-6.834 3.4102-6.834s-30.437-17.87-40.67-17.607zm32.293 27.307c-8.5273-0.0037-16.879 4.3933-21.012 7.3828-4.7231 3.4163-8.1333 6.8329-11.02 11.826-0.52484 8.1467 2.623 26.543 2.623 26.543s15.481 4.7313 18.893 5.5195c1.312 11.038 3.6731 28.646 10.758 52.561h14.432 14.432c7.0847-23.915 9.7084-41.523 10.758-52.561 3.4111-0.78822 18.893-5.5195 18.893-5.5195s3.1498-18.133 2.625-26.543c-2.8862-4.9933-6.2984-8.4099-11.021-11.826-4.7231-3.4165-14.955-8.6727-24.664-7.0957l13.119 23.652c-1.8368 5.2561-3.936 7.8848-6.8223 12.615-0.78714-0.26283-0.52453-0.26339-1.5742-0.78906 2.0994-4.4676 3.1484-8.4099 3.9356-11.826 0.26256-0.78848 0.52482-1.3133 0.78711-1.5762 0-0.52539-0.26226-1.0505-0.78711-1.5762-5.5102-5.2561-12.332-9.4609-19.416-9.4609-7.0847 0-13.908 4.2049-19.418 9.4609-0.52484 0.52566-0.78711 1.0508-0.78711 1.5762 0 0.26283-5.7e-4 0.78769 0.26172 1.5762 0.78711 3.4163 1.8384 7.3586 3.9375 11.826-1.0497 0.52567-0.78877 0.52623-1.5762 0.78906-3.1485-4.7304-4.9854-7.622-6.8223-12.615l13.121-23.652c-1.2136-0.19712-2.4361-0.28658-3.6543-0.28711zm8.377 24.729c0 0.26283-1.5742 2.8906-1.5742 2.8906 0 2.8909 1.8359 5.5195 1.8359 5.5195l-3.9356 0.78711s-2.0982-3.1521-2.623-6.043c1.312-2.3652 5.2472-3.1543 6.2969-3.1543zm13.551 0.21484c1.2986 7e-3 4.4556 0.8699 5.6035 2.9394-0.52484 2.8909-2.623 6.043-2.623 6.043l-3.9375-0.78711s1.837-2.6286 2.0996-5.5195l-1.5742-2.627c0.0984-0.0328 0.24612-0.04993 0.43164-0.04883zm-7.2539 25.014c3.4111 0 8.1354 0.26315 14.695 4.2051-1.0497 4.9933-2.0993 8.6719-4.4609 13.402 0 0.26283-0.52539 0.26283-0.52539 0-0.52457-2.3652-1.3125-11.563-1.3125-12.352h-0.26172l-2.8867 4.7305-0.26172-0.26172-2.0996-4.7305h-0.52539l-2.0977 4.2051h-0.52539l-2.0996-4.2051h-0.26171l-2.0996 4.7305-0.52539 0.26172-3.1484-4.7305h-0.26172c0 0.78822-0.78765 9.9864-1.3125 12.352 0 0.26283-0.52344 0.26283-0.52344 0-2.0991-4.9932-3.1495-8.6719-4.1992-13.402 6.5599-3.9419 11.02-4.2051 14.693-4.2051zm-10.232 36.004h0.26172c2.8865 2.1024 5.5098 6.0449 5.5098 6.0449l1.5762-3.9414h0.26172l2.623 3.416 2.625-3.416h0.26172l1.8359 3.9414s2.6255-3.9425 5.5117-6.0449c-0.78714 3.9419-2.0996 9.7246-2.0996 9.7246s-4.1988-1.3144-8.1348-1.3144c-3.9359 0-8.1328 1.3144-8.1328 1.3144s-1.3125-5.5199-2.0996-9.7246z" fill="#5e0009"/>
 </g>
</svg>